<?xml version="1.0" encoding="UTF-8"?>
<!DOCTYPE svg PUBLIC "-//W3C//DTD SVG 1.1//EN" "http://www.w3.org/Graphics/SVG/1.1/DTD/svg11.dtd">
<svg xmlns="http://www.w3.org/2000/svg" version="1.1" width="1024px" height="1024px" style="shape-rendering:geometricPrecision; text-rendering:geometricPrecision; image-rendering:optimizeQuality; fill-rule:evenodd; clip-rule:evenodd" xmlns:xlink="http://www.w3.org/1999/xlink">
<g><path style="opacity:0.974" fill="#fefffe" d="M 446.5,67.5 C 458.017,66.9055 469.017,68.9055 479.5,73.5C 484.575,77.7051 489.742,81.7051 495,85.5C 499.667,92.5568 503.5,99.8902 506.5,107.5C 508.057,118.575 507.723,129.575 505.5,140.5C 502.386,146.047 499.22,151.714 496,157.5C 492.385,161.803 488.052,165.136 483,167.5C 480.41,197.852 483.577,227.518 492.5,256.5C 494.983,262.476 497.649,268.31 500.5,274C 504.736,279.659 508.57,285.493 512,291.5C 518.62,297.172 525.453,302.672 532.5,308C 545.466,314.076 559.132,318.409 573.5,321C 598.551,323.18 623.218,321.18 647.5,315C 655.929,311.195 664.596,308.028 673.5,305.5C 673.887,300.186 673.221,295.02 671.5,290C 673.012,283.706 674.345,277.372 675.5,271C 693.067,238.586 719.233,229.752 754,244.5C 775.417,258.93 784.083,279.263 780,305.5C 775.524,324.15 764.357,337.15 746.5,344.5C 735.229,346.763 723.895,347.097 712.5,345.5C 708.629,359.514 704.629,373.514 700.5,387.5C 696.537,410.672 696.537,433.838 700.5,457C 703.014,465.056 705.68,473.056 708.5,481C 710.766,482.523 711.933,484.689 712,487.5C 714.565,491.236 717.732,494.57 721.5,497.5C 722.333,499.5 723.167,501.5 724,503.5C 726.167,504.333 727.667,505.833 728.5,508C 736.545,513.779 745.045,518.946 754,523.5C 780.598,533.252 808.098,537.918 836.5,537.5C 841.833,537.167 847.167,536.833 852.5,536.5C 854.635,531.023 857.968,526.357 862.5,522.5C 867.653,518.754 873.32,515.754 879.5,513.5C 890.782,511.003 902.115,510.836 913.5,513C 924.328,517.509 933.661,524.009 941.5,532.5C 945.171,538.683 948.171,545.183 950.5,552C 951.59,560.142 951.756,568.308 951,576.5C 949.084,583.868 946.417,590.868 943,597.5C 938.167,601 934,605.167 930.5,610C 926.107,612.689 921.44,615.022 916.5,617C 901.143,620.98 886.143,619.98 871.5,614C 868.514,611.603 865.68,609.103 863,606.5C 858.845,608.992 854.345,610.492 849.5,611C 846.626,613.727 843.126,615.227 839,615.5C 834.734,617.133 830.734,619.133 827,621.5C 821.062,623.078 815.228,624.911 809.5,627C 808.91,628.299 807.91,629.132 806.5,629.5C 782.475,638.762 758.308,647.762 734,656.5C 719.975,662.097 706.142,668.097 692.5,674.5C 686.936,675.747 681.436,677.08 676,678.5C 671.323,677.991 666.823,676.824 662.5,675C 658.667,670.5 654.5,666.333 650,662.5C 646.464,655.794 641.964,649.794 636.5,644.5C 632.571,640.949 628.737,637.282 625,633.5C 622.894,631.623 621.561,629.29 621,626.5C 609.639,613.498 597.639,601.165 585,589.5C 584.667,588.167 584.333,586.833 584,585.5C 571.346,572.68 558.513,560.013 545.5,547.5C 543.882,544.057 541.715,541.057 539,538.5C 504.263,504.15 469.43,469.983 434.5,436C 431.299,435.121 428.632,433.455 426.5,431C 420.346,425.012 414.346,418.846 408.5,412.5C 401.654,406.165 394.321,400.332 386.5,395C 380.154,388.11 373.487,381.61 366.5,375.5C 364.885,374.846 363.218,374.346 361.5,374C 356.027,368.527 350.527,363.027 345,357.5C 340.073,344.238 341.407,331.571 349,319.5C 353.924,305.401 359.258,291.401 365,277.5C 370.58,265.841 375.246,253.841 379,241.5C 389.751,213.498 400.918,185.664 412.5,158C 411,157.167 409.833,156 409,154.5C 406.823,151.006 404.823,147.339 403,143.5C 401.681,136.13 400.181,128.797 398.5,121.5C 400.943,91.0424 416.943,73.0424 446.5,67.5 Z"/></g>
<g><path style="opacity:0.933" fill="#fefffe" d="M 329.5,385.5 C 359.306,407.156 387.306,431.322 413.5,458C 414.833,458.667 416.167,459.333 417.5,460C 463.667,506.167 509.833,552.333 556,598.5C 557.333,600.5 558.667,602.5 560,604.5C 571.598,616.143 582.932,627.81 594,639.5C 594.333,640.833 594.667,642.167 595,643.5C 602.582,651.059 609.915,658.726 617,666.5C 617.333,667.833 617.667,669.167 618,670.5C 622.035,674.2 625.702,678.2 629,682.5C 632.617,688.981 631.617,694.648 626,699.5C 618.013,707.654 609.846,715.654 601.5,723.5C 596.477,726.089 591.477,726.089 586.5,723.5C 582.361,717.569 577.528,712.236 572,707.5C 570.47,705.774 569.47,703.774 569,701.5C 560.955,693.778 553.122,685.778 545.5,677.5C 544.169,674.168 542.336,671.168 540,668.5C 524.716,652.049 508.882,636.049 492.5,620.5C 491.129,617.226 489.296,614.226 487,611.5C 460.167,586 434,559.833 408.5,533C 406.5,532.167 404.5,531.333 402.5,530.5C 384.591,511.757 366.258,493.591 347.5,476C 345.782,475.654 344.115,475.154 342.5,474.5C 334.65,466.429 326.65,458.595 318.5,451C 316.774,449.47 314.774,448.47 312.5,448C 306.962,442.127 301.128,436.627 295,431.5C 294.333,427.167 294.333,422.833 295,418.5C 306.068,406.93 317.568,395.93 329.5,385.5 Z"/></g>
<g><path style="opacity:0.966" fill="#fefffe" d="M 277.5,450.5 C 279.527,450.338 281.527,450.505 283.5,451C 292.444,458.942 301.11,467.275 309.5,476C 311.5,477.333 313.5,478.667 315.5,480C 321.5,486.333 327.5,492.667 333.5,499C 334.833,499.333 336.167,499.667 337.5,500C 351.228,514.397 365.561,528.063 380.5,541C 414,575.833 448.167,610 483,643.5C 494.603,657.105 506.936,670.105 520,682.5C 520.333,683.833 520.667,685.167 521,686.5C 527.333,692.5 533.667,698.5 540,704.5C 540.333,705.5 540.667,706.5 541,707.5C 550.848,717.381 560.348,727.547 569.5,738C 555.333,753.5 540.5,768.333 525,782.5C 523.689,785.135 522.022,787.469 520,789.5C 494.597,814.781 469.097,839.948 443.5,865C 438.853,866.545 434.186,866.378 429.5,864.5C 410.509,863.334 391.509,863.167 372.5,864C 352.049,866.182 331.716,868.849 311.5,872C 268.858,881.103 227.191,893.437 186.5,909C 167.864,917.317 149.197,925.65 130.5,934C 120.958,940.605 110.958,946.438 100.5,951.5C 99.1667,950.167 97.8333,950.167 96.5,951.5C 92.7095,947.363 92.2095,943.029 95,938.5C 152.833,880.667 210.667,822.833 268.5,765C 274.293,767.29 280.293,769.29 286.5,771C 306.307,773.351 323.14,767.517 337,753.5C 354.671,727.407 352.838,702.907 331.5,680C 324.542,675.319 317.042,671.485 309,668.5C 284.843,664.416 265.843,672.416 252,692.5C 243.852,707.635 242.519,723.302 248,739.5C 250.415,743.49 252.415,747.49 254,751.5C 196.5,809 139,866.5 81.5,924C 77.9279,925.405 74.2613,925.738 70.5,925C 69.3159,923.82 68.6493,922.32 68.5,920.5C 78.3514,900.109 88.5181,879.775 99,859.5C 99.3333,857.833 99.6667,856.167 100,854.5C 124.596,799.164 141.762,741.664 151.5,682C 152.683,665.362 154.183,648.862 156,632.5C 155.359,613.82 154.693,595.153 154,576.5C 195.396,534.605 236.563,492.605 277.5,450.5 Z"/></g>
</svg>
